<svg xmlns="http://www.w3.org/2000/svg" viewBox="0 0 1440 320"><path fill="#0099ff" fill-opacity="1" d="M0,0L16,10.7C32,21,64,43,96,69.3C128,96,160,128,192,160C224,192,256,224,288,208C320,192,352,128,384,112C416,96,448,128,480,160C512,192,544,224,576,250.7C608,277,640,299,672,282.7C704,267,736,213,768,208C800,203,832,245,864,245.3C896,245,928,203,960,170.7C992,139,1024,117,1056,128C1088,139,1120,181,1152,213.3C1184,245,1216,267,1248,272C1280,277,1312,267,1344,218.7C1376,171,1408,85,1424,42.7L1440,0L1440,320L1424,320C1408,320,1376,320,1344,320C1312,320,1280,320,1248,320C1216,320,1184,320,1152,320C1120,320,1088,320,1056,320C1024,320,992,320,960,320C928,320,896,320,864,320C832,320,800,320,768,320C736,320,704,320,672,320C640,320,608,320,576,320C544,320,512,320,480,320C448,320,416,320,384,320C352,320,320,320,288,320C256,320,224,320,192,320C160,320,128,320,96,320C64,320,32,320,16,320L0,320Z"></path></svg>