<svg xmlns="http://www.w3.org/2000/svg" viewBox="0 0 1440 320"><path fill="#0099ff" fill-opacity="1" d="M0,32L12,58.7C24,85,48,139,72,186.7C96,235,120,277,144,272C168,267,192,213,216,192C240,171,264,181,288,165.3C312,149,336,107,360,90.7C384,75,408,85,432,122.7C456,160,480,224,504,240C528,256,552,224,576,229.3C600,235,624,277,648,277.3C672,277,696,235,720,202.7C744,171,768,149,792,122.7C816,96,840,64,864,85.3C888,107,912,181,936,208C960,235,984,213,1008,186.7C1032,160,1056,128,1080,112C1104,96,1128,96,1152,106.7C1176,117,1200,139,1224,138.7C1248,139,1272,117,1296,138.7C1320,160,1344,224,1368,256C1392,288,1416,288,1428,288L1440,288L1440,0L1428,0C1416,0,1392,0,1368,0C1344,0,1320,0,1296,0C1272,0,1248,0,1224,0C1200,0,1176,0,1152,0C1128,0,1104,0,1080,0C1056,0,1032,0,1008,0C984,0,960,0,936,0C912,0,888,0,864,0C840,0,816,0,792,0C768,0,744,0,720,0C696,0,672,0,648,0C624,0,600,0,576,0C552,0,528,0,504,0C480,0,456,0,432,0C408,0,384,0,360,0C336,0,312,0,288,0C264,0,240,0,216,0C192,0,168,0,144,0C120,0,96,0,72,0C48,0,24,0,12,0L0,0Z"></path></svg>